<?xml version="1.0" encoding="UTF-8"?>
<svg id="Layer_1" data-name="Layer 1" xmlns="http://www.w3.org/2000/svg" viewBox="0 0 441.99 479.75">
  <defs>
    <style>
      .cls-1 {
        fill: #191825;
      }

      .cls-2 {
        fill: #865dff;
      }

      .cls-3 {
        fill: #6d4aff;
      }

      .cls-4 {
        fill: #9785ff;
      }
    </style>
  </defs>
  <path class="cls-4" d="m285.79,167.81c-2.84,1.57-5.09,3.87-7.55,5.94-7.4,6.24-14.73,12.6-23.25,17.34-7.96,4.43-16.24,8.17-24.93,10.93-4.28,1.36-8.58,2.67-12.94,3.71-4.15.99-8.47,1.32-12.61,2.21-3.75.81-7.56.05-11.06.99-3.92,1.05-7.75.75-11.61.78-2.19.02-4.37-.74-6.58-.9-2.32-.17-4.73.33-6.97-.11-5.06-.99-10.17-1.83-15.14-3.2-8.37-2.31-16.75-4.59-25.13-6.87-5.05-1.38-10.18-2.58-15.17-4.3-4.09-1.41-8.38-2.22-12.53-3.5-4.44-1.37-8.96-2.54-13.49-3.59-4.55-1.05-8.95-2.59-13.54-3.52-4.23-.86-8.32-2.4-12.49-3.55-3.15-.87-6.3-2-9.51-2.27-4.63-.39-9.42-.7-13.94.11-3.19.57-6.87.68-9.57,3.37-1.24,1.24-2.61.39-2.84-1.35-.22-1.71-.67-3.38-.97-5.08-.27-1.54.32-3.08-.85-4.68-.94-1.28.68-3.6-1.15-4.98.44-2.79-.38-5.45-1.04-8.06-1.17-4.56-1.12-9.33-2.76-13.82-.8-2.18-.58-4.67-1.02-7.03-1.41-7.6-2.85-15.31-2.11-23.1.6-6.26,1.45-12.57,6.34-17.32.58-3.2,4.71-3.15,5.59-6.09,6.42-3.56,13.28-4.22,20.28-2.5,7.28,1.79,14.34,4.26,21.07,7.68,39.33,19.99,78.53,40.24,117.98,60,14.52,7.27,30.06,10.37,46.18,11.51,18.31,1.29,36.15-.78,53.73-5.8,1.42-.41,2.87-.97,4.36-.18,1.55,1.75.27,2.97-.8,4.23-.33.33-.67.67-1,1-.53.6-1.48.38-2,1-.33.33-.7.63-1,1Z"/>
  <path class="cls-3" d="m38.97,192.79c2.56.16,4.69,1.63,6.92,2.59,4.68,2.02,9.61,3.27,14.28,5.32,6.53,2.86,12.98,5.84,18.91,9.78,5.06,3.36,9.97,6.92,14.43,11.15,2.33,2.2,4.96,4.17,7.24,6.48,6.45,6.54,12.04,13.75,17.45,21.19,4.27,5.87,7.79,12.1,11.05,18.45,3.52,6.86,5.92,14.2,7.75,21.77,1.67,6.91,3.59,13.78,5.62,20.61,1.28,4.29,2.11,8.78,3.26,13.15,1.3,4.95,2.62,9.92,3.8,14.88,1.69,7.12,3.52,14.24,5.37,21.3,2.16,8.23,3.29,16.77,6.77,24.64-.52,3.21,1.66,5.66,2.6,8.42.93,2.73,2.57,5.26,4.33,7.72,2.49,3.49,5.18,6.54,9.05,8.32,1.39.64,1.42,1.26.55,2.03-2.79,2.48-5.06,5.46-8.32,7.56-2.81,1.81-4.98,4.59-7.72,6.67-3.76,2.86-7.17,6.19-10.55,9.5-1.23,1.2-3.5,1.13-3.87,3.28-1.32,2.02-2.34,4.32-5,5-1.37-.36-2.07.6-2.92,1.4-4.16,3.92-9.01,6.93-14.04,9.49-3.57,1.82-7.42,3.41-11.69,3.14-.86-.05-1.75.55-2.65.76-.62.14-1.5.43-1.89.14-2.48-1.84-6.11-.23-8.35-2.89-.34-.41-1.6-.06-2.43-.06-5.26-2.33-7.89-7-10.17-11.82-3.03-6.4-4.34-13.37-4.95-20.3-1.11-12.58-1.51-25.22-2.24-37.84-.97-16.6-1.78-33.2-2.7-49.8-.5-8.96-.91-17.94-1.44-26.9-.89-15.07-.3-30.35-4.67-45.06-7.75-26.08-21.18-48.74-41.02-67.47-1.35-1.27-2.7-2.47-3.22-4.33.26-1.88,1.43-1.94,2.9-1.49,2.21.67,4.5,1.11,6.56,2.21.31.35.68.65,1,1Z"/>
  <path class="cls-2" d="m185.86,404.64c0,.33.05.67,0,1-.12.72.5,1.79-.78,1.98-1.21.18-1.14-.69-1.23-1.56-.26-2.53-.14-5.27-1.11-7.52-.99-2.27-.67-4.42-.85-6.64-.17-2.05.24-4.08-.91-6.13-.89-1.58.3-3.63-.88-5.64-1.03-1.75.38-4.48-1.22-6.46.7-4.44-1.11-8.67-1.02-13.07.09-4.49-.56-9.09.21-13.45.58-3.24.43-6.43.87-9.6.45-3.23,1.25-6.44,2.19-9.56.98-3.27,1.72-6.6,2.63-9.88,1.08-3.88,2.53-7.63,3.67-11.48,1.41-4.74,4.16-8.9,5.78-13.59,1.2-3.45,3.59-6.5,5.52-9.68,2.21-3.62,4.25-7.36,7.1-10.55.3-.33.36-.88.67-1.21,5.04-5.41,9.71-11.26,15.25-16.1,13.26-11.57,25.03-24.61,37.61-36.84,10.02-9.74,19.79-19.75,29.69-29.63,2.95-2.94,5.14-6.38,7.1-10.04,2.27-4.25,3.82-8.6,3.64-13.48-.05-1.48.75-2.13,2.07-1.68,5.68,1.95,11.34,3.97,17,5.98,4.64,1.65,9.27,3.33,13.91,4.99,9.56,3.43,19.45,6.06,28.37,11.04,6.51,3.63,12.08,8.46,15.41,15.34.66,1.36,1.35,2.78,1.25,4.51-.08,1.34.58,2.72.92,4.08.9,7.02-2.25,12.64-6.53,17.63-4.88,5.7-10.69,10.41-16.98,14.56-36.94,24.32-73.95,48.52-111.08,72.54-18.45,11.94-31.47,28.32-41.91,47.17-7.31,13.18-12,27.32-15.35,41.96-.35.31-.65.68-1,1Z"/>
  <path class="cls-1" d="m290.79,160.81c-2.99.82-6.12,1.32-8.92,2.55-2.92,1.28-6.05,1.33-9.02,2.3-2.98.98-6.41.47-9.5,1.22-5.01,1.21-10.11.39-15.05,1.1-2.7.39-5.49,1.3-8.07.71-4.53-1.03-9.09-.47-13.57-1.03-2.35-.3-4.74-.57-7.08-.95-2.36-.39-4.95-.34-7.02-1.1-2.95-1.08-6.08-1.16-8.96-2.45-2.8-1.25-5.86-1.91-8.78-2.89-7.34-2.46-13.9-6.6-20.85-9.91-6.96-3.32-13.72-7.04-20.61-10.51-19.4-9.79-39-19.2-58.17-29.43-10.35-5.52-20.86-10.72-31.32-16.03-5.09-2.59-10.65-4.07-16.18-5.51-1.83-.48-3.58-1.22-5.58-1.04-2.15.19-4.83-.74-6.35.25-1.77,1.14-3.91-.07-5.4,1.7-.48.57-2.22.09-3.39.09.02-2.24.02-4.41.91-6.61.74-1.85-.03-3.96.91-6.12,1.1-2.53.8-5.65,1.2-8.5.24-1.71.67-3.39.98-5.08.31-1.7-.72-3.62.91-5.14.26-.24.09-.95.09-1.44,0-2.24.16-4.39.88-6.62.66-2.04.33-4.33.95-6.59.75-2.69.31-5.67,1.01-8.57.47-1.95.08-4.37,1.42-5.89,1.56-1.76.03-3.77,1.23-5.55,1.08-1.61,1.69-3.63,2.4-5.47,1.95-5.07,5.06-9.12,8.96-12.79C54.03.58,61.03-.88,68.23.49c3.98.76,7.32,2.46,10.86,4.03,3.84,1.71,7.1,4.21,10.03,7.11,16.76,16.67,33.45,33.41,50.18,50.11.79.79,1.73,1.42,2.61,2.13.7.87,1.34,1.81,2.12,2.6,19.58,19.61,39.14,39.24,58.82,58.76,2.69,2.67,5.97,4.74,8.99,7.08,1.38,1.07,2.74,2.17,4.18,3.14.48.32,1.21.26,1.83.38,2.4.72,4.4,2.07,6,4,6.54,3.44,13.03,7,20.22,8.99,5.83,4.23,13.04,4.65,19.58,6.89,2.81.96,6.37.04,8.93,1.3,2.92,1.44,6.26-.57,8.74,1.8h9.48c.53.42.61.96.41,1.57-.13.14-.27.29-.41.43Z"/>
  <path class="cls-1" d="m28.97,190.79c.77,1.69,2.48,2.3,3.74,3.41,4.93,4.3,9.28,9.19,13.24,14.42,1.53,2.02,2.75,4.33,4.53,6.07,3.23,3.17,5.09,7.24,7.38,10.96,4.93,8.01,8.78,16.55,12.29,25.33,2.26,5.64,3.66,11.45,5.55,17.15.94,2.82.9,5.97,1.22,8.98.38,3.52.81,7.03.97,10.56.17,3.48-.66,7.17.19,10.43,1.41,5.4.68,10.74.75,16.09.05,3.59,1.58,6.9,1.17,10.57-.38,3.45-.8,7.17.09,10.42,1.3,4.75.42,9.42.83,14.1.32,3.69.8,7.37.96,11.06.17,3.82-.65,7.81.2,11.44,1.3,5.56.06,11.14.95,16.57,1.12,6.86.16,13.79,1.11,20.53.62,4.4.62,8.73.75,13.09.07,2.42,1.72,4.57,1.04,7.07,2.16,1.77-.14,4.88,2,6.66-.15,3.31,1.87,5.91,3.11,8.69,1.07,2.4,3.07,4.4,4.72,6.53.99,1.28,2.1,2.46,3.16,3.68-5.52,2.33-10.94,4.98-16.6,6.89-4.25,1.43-8.25,3.4-12.49,4.81-7.44,2.47-14.39,6.27-22.02,8.29-2.9,2.38-6.84,1.89-9.98,3.63-.27.15-.57.37-.84.35-4.08-.33-7.97,1.81-12.06,1-4.41-.87-9.01-.85-13.03-3.5-6-3.96-9.77-9.12-11.03-16.37-.59-3.39-.85-6.71-.86-10.09-.01-2.24-.01-4.41.9-6.61.76-1.84.05-3.95.87-6.12.9-2.37.48-5.14,1.93-7.72,1.16-2.07.26-5.29,1.42-7.35,2.59-4.59,1.48-10.21,4.63-14.6.82-1.15.38-3.12.83-4.62.61-2.06.48-4.27,1.99-6.19,1.23-1.57.16-3.93,1.22-5.97.61-1.18.55-3.2,1.42-4.35.98-1.27.53-2.48.78-3.71.25-1.21.67-2.38.97-3.59.15-.61-.04-1.45.3-1.86,2.35-2.73,1.4-6.37,2.68-9.39.18-.42-.12-1.14.13-1.43,2.45-2.84,2.05-6.52,2.79-9.82.48-2.17,2.39-3.65,2.2-6.14-.15-1.98.04-4.41,1.09-5.96,2.09-3.08,1.59-6.68,2.84-9.84,1.56-3.95,2.69-7.98,3.03-12.22,2.5-2.8,1.71-6.59,2.97-9.75,1.57-3.95,2.63-8,3.02-12.22,2.13-1.95,1.48-4.73,2.23-7.07.77-2.4,1.2-4.87,1.91-7.2.78-2.56.89-5.21,1.65-7.76.72-2.45.13-5.28.17-7.94.01-.78.24-1.56.37-2.34.2-1.25.91-2.68.53-3.71-1.84-4.98-.68-10.07-.82-15.09-.06-2.14-.65-4.06-1.08-6.07-.4-1.85.37-3.71-.76-5.7-.93-1.63-.75-3.98-1.08-5.98-.83-4.96-2.28-9.71-3.63-14.51-2.31-8.19-5.24-16.12-9.5-23.52-.22-.38-.03-.98-.03-1.48-.39-1.06.12-1.21,1-1Z"/>
  <path class="cls-1" d="m186.86,403.64c.04-7.99,2.53-15.41,5.27-22.79,2.74-7.38,5.95-14.59,9.85-21.37,3.82-6.64,7.5-13.46,12.74-19.23,3.24-3.56,5.98-7.58,9.25-11.12,6.03-6.51,13.3-11.54,20.65-16.42,4.43-2.94,8.82-5.96,13.4-8.66,9.29-5.47,17.76-12.2,27.22-17.44,6.43-3.56,12.29-8.15,18.42-12.25,7.3-4.89,14.57-9.81,21.92-14.6,10.87-7.08,21.9-13.92,32.69-21.12,5.62-3.75,10.41-8.66,14.66-13.84,2.67-3.25,4.58-7.39,4.83-11.94.06-1.04.63-2.06.96-3.09,2.99.88,5.02,3.26,7.38,5.03,5.87,4.38,11.44,9.14,17.43,13.39,4.19,2.97,7.72,6.9,11.99,9.73,5.92,3.92,10.67,9.01,15.72,13.84,5.04,4.81,8.01,10.91,10.06,17.3,1.31,4.07.66,8.54-1.11,12.71-3.29,7.73-9.12,12.96-16.25,16.89-2.4,1.33-5.1,2.17-7.73,3.02-2.51.81-4.74,2.2-7.65,2.23-1.94.02-4.08,1.3-6.09,2.01-3.72,1.31-7.59,1.83-11.35,2.61-2.64.54-4.68,3.02-7.62,2.18-3.36,1.79-7.22,1.83-10.8,2.78-3,.8-5.7,2.56-8.91,2.71-1.7.08-3.39.6-5.05,1.03-1.64.42-3.38.74-4.84,1.54-1.61.88-3.65.36-4.9,1.36-1.54,1.23-3.8-.48-4.87,1.58-4.94-.64-8.97,2.84-13.74,3-1.44,1.98-3.68.5-5.46,1.27-2.4,1.03-4.94,1.72-7.4,2.62-2.29.85-4.85.94-7.19,1.94-1.41.6-3.1.72-4.67.73-3.09.02-5.51,2.01-8.47,2.56-2.89.53-5.78,1.37-8.7,1.77-2.25.31-3.94,1.73-6.1,2.29-3.75.98-7.59,1.75-11.34,2.58-3.86.85-7.2,2.85-11.05,3.61-4.53.9-8.61,3.29-12.9,4.98-3.28,1.29-6.06,3.8-9.17,5.6-4.47,2.59-8.75,5.47-12.97,8.43-.88.62-1.44,1.71-2.14,2.58-.54.58-1.48.37-2,1-7.4,5.47-13.97,11.89-20.03,18.72-5.07,5.71-9.56,11.96-13.95,18.25Z"/>
</svg>